<svg xmlns="http://www.w3.org/2000/svg" viewBox="0 0 720 200" width="720" height="200" role="img" aria-label="Package health trend: mean 98.1, lowest 87.2">
  <text x="34" y="12" font-size="11" fill="#8b9ab5" font-family="ui-sans-serif, system-ui, sans-serif">package health · mean 98.1 · range 87–100 · lowest: ui</text>
  <line x1="34" y1="174.0" x2="706" y2="174.0" stroke="#8b9ab5" stroke-width="0.5" stroke-opacity="0.25" /><text x="28" y="177.5" font-size="9" fill="#8b9ab5" text-anchor="end" font-family="ui-monospace, monospace">0</text><line x1="34" y1="135.0" x2="706" y2="135.0" stroke="#8b9ab5" stroke-width="0.5" stroke-opacity="0.25" /><text x="28" y="138.5" font-size="9" fill="#8b9ab5" text-anchor="end" font-family="ui-monospace, monospace">25</text><line x1="34" y1="96.0" x2="706" y2="96.0" stroke="#8b9ab5" stroke-width="0.5" stroke-opacity="0.25" /><text x="28" y="99.5" font-size="9" fill="#8b9ab5" text-anchor="end" font-family="ui-monospace, monospace">50</text><line x1="34" y1="57.0" x2="706" y2="57.0" stroke="#8b9ab5" stroke-width="0.5" stroke-opacity="0.25" /><text x="28" y="60.5" font-size="9" fill="#8b9ab5" text-anchor="end" font-family="ui-monospace, monospace">75</text><line x1="34" y1="18.0" x2="706" y2="18.0" stroke="#8b9ab5" stroke-width="0.5" stroke-opacity="0.25" /><text x="28" y="21.5" font-size="9" fill="#8b9ab5" text-anchor="end" font-family="ui-monospace, monospace">100</text>
  <path d="M34.0,18.0 L85.7,18.0 L137.4,18.0 L189.1,18.0 L240.8,18.0 L292.5,18.0 L344.2,18.0 L395.8,18.0 L447.5,18.0 L499.2,18.0 L550.9,18.0 L602.6,18.0 L654.3,18.0 L706.0,18.0 L706.0,38.0 L654.3,38.0 L602.6,38.0 L550.9,38.0 L499.2,38.0 L447.5,38.0 L395.8,76.8 L344.2,76.8 L292.5,76.8 L240.8,76.8 L189.1,76.8 L137.4,76.8 L85.7,76.8 L34.0,76.8 Z" fill="#6366f1" fill-opacity="0.16" stroke="none" />
  <path d="M34.0,24.3 L85.7,24.3 L137.4,24.3 L189.1,24.3 L240.8,24.3 L292.5,23.9 L344.2,23.9 L395.8,23.4 L447.5,21.7 L499.2,21.7 L550.9,21.7 L602.6,21.1 L654.3,21.0 L706.0,21.0" fill="none" stroke="#6366f1" stroke-width="2" stroke-linejoin="round" />
  <circle cx="34.0" cy="24.3" r="2.5" fill="#6366f1" /><circle cx="85.7" cy="24.3" r="2.5" fill="#6366f1" /><circle cx="137.4" cy="24.3" r="2.5" fill="#6366f1" /><circle cx="189.1" cy="24.3" r="2.5" fill="#6366f1" /><circle cx="240.8" cy="24.3" r="2.5" fill="#6366f1" /><circle cx="292.5" cy="23.9" r="2.5" fill="#6366f1" /><circle cx="344.2" cy="23.9" r="2.5" fill="#6366f1" /><circle cx="395.8" cy="23.4" r="2.5" fill="#6366f1" /><circle cx="447.5" cy="21.7" r="2.5" fill="#6366f1" /><circle cx="499.2" cy="21.7" r="2.5" fill="#6366f1" /><circle cx="550.9" cy="21.7" r="2.5" fill="#6366f1" /><circle cx="602.6" cy="21.1" r="2.5" fill="#6366f1" /><circle cx="654.3" cy="21.0" r="2.5" fill="#6366f1" /><circle cx="706.0" cy="21.0" r="2.5" fill="#6366f1" />
  <text x="34" y="192" font-size="9" fill="#8b9ab5" font-family="ui-monospace, monospace">81feb8c</text>
  <text x="706" y="192" font-size="9" fill="#8b9ab5" text-anchor="end" font-family="ui-monospace, monospace">c1d212c</text>
  <text x="360" y="192" font-size="9" fill="#8b9ab5" text-anchor="middle" font-family="ui-sans-serif, system-ui, sans-serif">14 runs · shaded band = spread across packages</text>
</svg>
