<svg xmlns="http://www.w3.org/2000/svg" viewBox="0 0 720 200" width="720" height="200" role="img" aria-label="Package health trend: mean 96.6, lowest 62.3">
  <text x="34" y="12" font-size="11" fill="#8b9ab5" font-family="ui-sans-serif, system-ui, sans-serif">package health · mean 96.6 · range 62–100 · lowest: worker</text>
  <line x1="34" y1="174.0" x2="706" y2="174.0" stroke="#8b9ab5" stroke-width="0.5" stroke-opacity="0.25" /><text x="28" y="177.5" font-size="9" fill="#8b9ab5" text-anchor="end" font-family="ui-monospace, monospace">0</text><line x1="34" y1="135.0" x2="706" y2="135.0" stroke="#8b9ab5" stroke-width="0.5" stroke-opacity="0.25" /><text x="28" y="138.5" font-size="9" fill="#8b9ab5" text-anchor="end" font-family="ui-monospace, monospace">25</text><line x1="34" y1="96.0" x2="706" y2="96.0" stroke="#8b9ab5" stroke-width="0.5" stroke-opacity="0.25" /><text x="28" y="99.5" font-size="9" fill="#8b9ab5" text-anchor="end" font-family="ui-monospace, monospace">50</text><line x1="34" y1="57.0" x2="706" y2="57.0" stroke="#8b9ab5" stroke-width="0.5" stroke-opacity="0.25" /><text x="28" y="60.5" font-size="9" fill="#8b9ab5" text-anchor="end" font-family="ui-monospace, monospace">75</text><line x1="34" y1="18.0" x2="706" y2="18.0" stroke="#8b9ab5" stroke-width="0.5" stroke-opacity="0.25" /><text x="28" y="21.5" font-size="9" fill="#8b9ab5" text-anchor="end" font-family="ui-monospace, monospace">100</text>
  <path d="M34.0,18.0 L130.0,18.0 L226.0,18.0 L322.0,18.0 L418.0,18.0 L514.0,18.0 L610.0,18.0 L706.0,18.0 L706.0,76.8 L610.0,76.8 L514.0,76.8 L418.0,76.8 L322.0,76.8 L226.0,76.8 L130.0,76.8 L34.0,76.8 Z" fill="#6366f1" fill-opacity="0.16" stroke="none" />
  <path d="M34.0,24.3 L130.0,24.3 L226.0,24.3 L322.0,24.3 L418.0,24.3 L514.0,23.9 L610.0,23.9 L706.0,23.4" fill="none" stroke="#6366f1" stroke-width="2" stroke-linejoin="round" />
  <circle cx="34.0" cy="24.3" r="2.5" fill="#6366f1" /><circle cx="130.0" cy="24.3" r="2.5" fill="#6366f1" /><circle cx="226.0" cy="24.3" r="2.5" fill="#6366f1" /><circle cx="322.0" cy="24.3" r="2.5" fill="#6366f1" /><circle cx="418.0" cy="24.3" r="2.5" fill="#6366f1" /><circle cx="514.0" cy="23.9" r="2.5" fill="#6366f1" /><circle cx="610.0" cy="23.9" r="2.5" fill="#6366f1" /><circle cx="706.0" cy="23.4" r="2.5" fill="#6366f1" />
  <text x="34" y="192" font-size="9" fill="#8b9ab5" font-family="ui-monospace, monospace">81feb8c</text>
  <text x="706" y="192" font-size="9" fill="#8b9ab5" text-anchor="end" font-family="ui-monospace, monospace">889d464</text>
  <text x="360" y="192" font-size="9" fill="#8b9ab5" text-anchor="middle" font-family="ui-sans-serif, system-ui, sans-serif">8 runs · shaded band = spread across packages</text>
</svg>
