<svg xmlns="http://www.w3.org/2000/svg" viewBox="0 0 720 200" width="720" height="200" role="img" aria-label="Package health trend: mean 96.2, lowest 62.3">
  <text x="34" y="12" font-size="11" fill="#8b9ab5" font-family="ui-sans-serif, system-ui, sans-serif">package health · mean 96.2 · range 62–100 · lowest: worker</text>
  <line x1="34" y1="174.0" x2="706" y2="174.0" stroke="#8b9ab5" stroke-width="0.5" stroke-opacity="0.25" /><text x="28" y="177.5" font-size="9" fill="#8b9ab5" text-anchor="end" font-family="ui-monospace, monospace">0</text><line x1="34" y1="135.0" x2="706" y2="135.0" stroke="#8b9ab5" stroke-width="0.5" stroke-opacity="0.25" /><text x="28" y="138.5" font-size="9" fill="#8b9ab5" text-anchor="end" font-family="ui-monospace, monospace">25</text><line x1="34" y1="96.0" x2="706" y2="96.0" stroke="#8b9ab5" stroke-width="0.5" stroke-opacity="0.25" /><text x="28" y="99.5" font-size="9" fill="#8b9ab5" text-anchor="end" font-family="ui-monospace, monospace">50</text><line x1="34" y1="57.0" x2="706" y2="57.0" stroke="#8b9ab5" stroke-width="0.5" stroke-opacity="0.25" /><text x="28" y="60.5" font-size="9" fill="#8b9ab5" text-anchor="end" font-family="ui-monospace, monospace">75</text><line x1="34" y1="18.0" x2="706" y2="18.0" stroke="#8b9ab5" stroke-width="0.5" stroke-opacity="0.25" /><text x="28" y="21.5" font-size="9" fill="#8b9ab5" text-anchor="end" font-family="ui-monospace, monospace">100</text>
  <path d="M34.0,18.0 L168.4,18.0 L302.8,18.0 L437.2,18.0 L571.6,18.0 L706.0,18.0 L706.0,76.8 L571.6,76.8 L437.2,76.8 L302.8,76.8 L168.4,76.8 L34.0,76.8 Z" fill="#6366f1" fill-opacity="0.16" stroke="none" />
  <path d="M34.0,24.3 L168.4,24.3 L302.8,24.3 L437.2,24.3 L571.6,24.3 L706.0,23.9" fill="none" stroke="#6366f1" stroke-width="2" stroke-linejoin="round" />
  <circle cx="34.0" cy="24.3" r="2.5" fill="#6366f1" /><circle cx="168.4" cy="24.3" r="2.5" fill="#6366f1" /><circle cx="302.8" cy="24.3" r="2.5" fill="#6366f1" /><circle cx="437.2" cy="24.3" r="2.5" fill="#6366f1" /><circle cx="571.6" cy="24.3" r="2.5" fill="#6366f1" /><circle cx="706.0" cy="23.9" r="2.5" fill="#6366f1" />
  <text x="34" y="192" font-size="9" fill="#8b9ab5" font-family="ui-monospace, monospace">81feb8c</text>
  <text x="706" y="192" font-size="9" fill="#8b9ab5" text-anchor="end" font-family="ui-monospace, monospace">a231e40</text>
  <text x="360" y="192" font-size="9" fill="#8b9ab5" text-anchor="middle" font-family="ui-sans-serif, system-ui, sans-serif">6 runs · shaded band = spread across packages</text>
</svg>
